<?xml version="1.0" encoding="utf-8"?>
<!-- Generator: Adobe Illustrator 25.4.1, SVG Export Plug-In . SVG Version: 6.00 Build 0)  -->
<svg version="1.1" id="Layer_1" xmlns="http://www.w3.org/2000/svg" xmlns:xlink="http://www.w3.org/1999/xlink" x="0px" y="0px"
	 viewBox="0 0 124.5 115" style="enable-background:new 0 0 124.5 115;" xml:space="preserve">
<style type="text/css">
	.st0{fill:#007CC3;}
</style>
<path class="st0" d="M59.77,52.37c0,0,5.67-25.83,31.99-28.56C91.76,23.81,75.01,27.63,59.77,52.37z"/>
<path class="st0" d="M65.06,56.55c0,0,5.82-29.45,32.87-32.56C97.94,23.99,80.72,28.35,65.06,56.55z"/>
<path class="st0" d="M69.22,63.18c0,0,7.14-36.11,40.31-39.92C109.52,23.26,88.42,28.61,69.22,63.18z"/>
<g>
	<path class="st0" d="M82.52,23.81c0,0-4.13-12.02-23.32-13.29C59.2,10.52,71.41,12.29,82.52,23.81z"/>
	<path class="st0" d="M78.66,25.75c0,0-4.24-13.7-23.96-15.14C54.7,10.6,67.25,12.63,78.66,25.75z"/>
	<path class="st0" d="M75.63,28.84c0,0-5.21-16.79-29.38-18.57C46.26,10.27,61.64,12.75,75.63,28.84z"/>
</g>
<path class="st0" d="M89.04,91.4c0,0-8.67-37.83-48.91-41.82C40.13,49.58,65.74,55.17,89.04,91.4z"/>
<path class="st0" d="M80.95,97.52c0,0-8.91-43.13-50.26-47.68C30.69,49.84,57.01,56.22,80.95,97.52z"/>
<path class="st0" d="M74.6,107.23c0,0-10.92-52.88-61.62-58.46C12.98,48.77,45.24,56.6,74.6,107.23z"/>
</svg>
